<?xml version="1.0" standalone="no"?>
<!DOCTYPE svg PUBLIC "-//W3C//DTD SVG 20010904//EN"
 "http://www.w3.org/TR/2001/REC-SVG-20010904/DTD/svg10.dtd">
<svg version="1.0" xmlns="http://www.w3.org/2000/svg"
 width="255.000000pt" height="300.000000pt" viewBox="0 0 255.000000 300.000000"
 preserveAspectRatio="xMidYMid meet">

<g transform="translate(0.000000,300.000000) scale(0.100000,-0.100000)"
fill="#000000" stroke="none">
<path d="M304 2990 c-12 -4 -31 -25 -42 -45 -26 -43 -26 -46 -8 -39 8 3 16 -3
19 -15 9 -36 83 -79 165 -96 42 -9 97 -24 122 -33 35 -14 50 -15 67 -7 21 11
21 13 7 33 -20 30 -38 28 -30 -2 6 -24 5 -24 -23 -10 -16 8 -64 21 -105 29
-120 23 -181 66 -174 121 2 25 8 29 32 29 29 0 57 -27 42 -42 -4 -4 -12 0 -17
10 -13 23 -39 22 -39 -2 0 -25 24 -43 51 -39 51 7 50 77 -1 103 -33 17 -36 17
-66 5z"/>
<path d="M2178 2984 c-31 -16 -46 -59 -31 -83 22 -35 83 -20 83 20 0 24 -26
25 -39 2 -5 -10 -13 -14 -17 -10 -15 15 13 42 42 42 24 0 30 -4 32 -29 7 -55
-54 -98 -170 -120 -40 -8 -86 -19 -101 -25 -26 -10 -28 -9 -22 9 9 27 -10 25
-29 -2 -15 -21 -15 -23 5 -31 14 -4 38 -2 63 7 23 8 76 22 118 31 82 17 156
60 165 96 3 12 11 18 19 15 18 -7 18 -4 -7 39 -19 31 -53 56 -77 55 -4 -1 -19
-7 -34 -16z"/>
<path d="M1168 2968 c-13 -13 -17 -18 -8 -11 8 7 27 16 40 22 17 6 19 10 8 10
-9 1 -27 -9 -40 -21z"/>
<path d="M1260 2972 c26 -21 35 -69 17 -92 -7 -9 -3 -8 10 3 12 11 25 17 30
14 4 -3 14 2 22 10 12 13 11 14 -9 8 -20 -6 -22 -4 -17 14 3 12 2 19 -3 16 -4
-3 -11 6 -14 20 -5 19 -13 25 -32 25 l-26 0 22 -18z"/>
<path d="M1330 2978 c0 -4 16 -8 35 -8 19 0 35 2 35 4 0 2 -16 6 -35 8 -19 2
-35 0 -35 -4z"/>
<path d="M1419 2948 c11 -15 11 -18 0 -18 -10 0 -10 -3 -1 -12 8 -8 15 -9 22
-2 7 7 3 17 -12 30 -18 15 -20 15 -9 2z"/>
<path d="M782 2938 c-26 -13 -35 -40 -29 -94 3 -35 4 -34 5 12 3 77 39 95 74
36 9 -15 24 -56 34 -91 14 -50 29 -77 66 -118 41 -45 47 -57 38 -73 -14 -26
-30 -26 -23 0 7 28 -33 27 -48 -1 -9 -18 -7 -25 10 -43 20 -19 23 -20 49 -6
19 11 28 25 30 48 3 27 -5 42 -46 87 -38 41 -53 67 -62 107 -15 61 -32 99 -54
117 -9 7 -13 17 -10 22 7 12 -5 10 -34 -3z"/>
<path d="M1733 2944 c4 -4 -5 -20 -18 -36 -13 -16 -29 -48 -35 -71 -18 -71
-41 -113 -81 -153 -48 -47 -54 -94 -14 -120 43 -28 87 4 65 47 -15 27 -54 26
-47 -1 7 -26 -9 -26 -23 0 -9 16 -3 28 38 73 37 41 52 68 66 118 10 35 25 76
34 91 33 57 71 42 74 -31 1 -39 2 -41 5 -12 6 50 -3 76 -32 89 -29 13 -42 15
-32 6z"/>
<path d="M1115 2931 c-3 -5 -1 -12 5 -16 5 -3 10 1 10 9 0 18 -6 21 -15 7z"/>
<path d="M1140 2920 c0 -5 8 -14 18 -19 19 -10 42 2 42 23 0 6 -5 5 -12 -2
-15 -15 -32 -16 -23 -2 3 6 -1 10 -9 10 -9 0 -16 -4 -16 -10z"/>
<path d="M1376 2906 c3 -8 12 -12 21 -9 12 5 12 7 1 14 -20 13 -28 11 -22 -5z"/>
<path d="M870 2906 c0 -3 9 -10 20 -16 11 -6 20 -8 20 -6 0 3 -9 10 -20 16
-11 6 -20 8 -20 6z"/>
<path d="M1654 2894 c-18 -14 -18 -15 4 -4 12 6 22 13 22 15 0 8 -5 6 -26 -11z"/>
<path d="M1210 2890 c0 -5 7 -7 15 -4 8 4 15 8 15 10 0 2 -7 4 -15 4 -8 0 -15
-4 -15 -10z"/>
<path d="M216 2873 c-6 -14 -5 -15 5 -6 7 7 10 15 7 18 -3 3 -9 -2 -12 -12z"/>
<path d="M1140 2880 c0 -6 7 -10 15 -10 8 0 15 2 15 4 0 2 -7 6 -15 10 -8 3
-15 1 -15 -4z"/>
<path d="M2320 2881 c0 -6 4 -13 10 -16 6 -3 7 1 4 9 -7 18 -14 21 -14 7z"/>
<path d="M1446 2872 c-3 -5 1 -15 9 -22 16 -14 20 -3 6 19 -5 8 -11 9 -15 3z"/>
<path d="M1073 2851 c-12 -11 -23 -26 -25 -33 -4 -10 -13 -9 -43 5 -20 10 -39
16 -42 14 -2 -2 19 -14 46 -26 30 -13 52 -29 56 -42 6 -17 9 -18 16 -8 4 7 11
10 15 6 9 -9 -16 -38 -26 -32 -5 3 -12 0 -16 -6 -5 -8 -1 -10 14 -7 14 4 22 1
25 -11 3 -12 5 -10 6 5 1 24 41 66 41 43 0 -8 -7 -26 -14 -41 -9 -16 -11 -30
-5 -33 5 -4 9 -14 9 -24 0 -9 7 -26 16 -37 14 -18 15 -18 4 5 -8 15 -10 51 -7
100 l6 76 -19 -25 c-11 -14 -20 -19 -20 -12 0 7 -6 20 -14 28 -13 12 -15 12
-19 -4 -4 -16 -5 -16 -12 2 -11 24 7 52 31 48 60 -9 73 -8 63 4 -5 7 -19 9
-31 6 -14 -3 -19 -1 -14 6 12 19 -18 14 -41 -7z"/>
<path d="M1205 2850 c-3 -5 -1 -10 4 -10 6 0 11 5 11 10 0 6 -2 10 -4 10 -3 0
-8 -4 -11 -10z"/>
<path d="M1495 2850 c-3 -5 1 -10 10 -10 9 0 13 5 10 10 -3 6 -8 10 -10 10 -2
0 -7 -4 -10 -10z"/>
<path d="M196 2841 c-4 -5 -2 -20 3 -33 9 -21 9 -20 8 9 -2 36 -3 38 -11 24z"/>
<path d="M1390 2846 c0 -2 7 -7 16 -10 8 -3 12 -2 9 4 -6 10 -25 14 -25 6z"/>
<path d="M2343 2817 c-1 -30 -1 -31 8 -8 5 14 6 28 2 32 -4 4 -9 -6 -10 -24z"/>
<path d="M1548 2824 c-39 -21 -35 -28 5 -8 37 19 44 24 31 24 -5 -1 -21 -8
-36 -16z"/>
<path d="M665 2782 c-3 -13 -5 -25 -3 -26 2 -1 13 -10 25 -20 21 -18 22 -18
21 0 -1 11 2 29 6 40 5 18 2 22 -18 26 -20 4 -26 0 -31 -20z"/>
<path d="M1486 2795 c-3 -9 -10 -13 -16 -10 -5 3 -10 -2 -10 -12 0 -15 2 -15
22 5 12 12 19 24 16 27 -3 3 -8 -1 -12 -10z"/>
<path d="M1237 2784 c6 -15 23 -19 23 -5 0 5 -7 11 -14 14 -10 4 -13 1 -9 -9z"/>
<path d="M1425 2779 c-5 -14 -1 -27 11 -38 17 -15 17 -15 5 1 -7 9 -10 26 -6
38 3 11 4 20 1 20 -2 0 -8 -10 -11 -21z"/>
<path d="M1844 2755 l1 -44 29 29 c25 24 27 31 16 44 -7 9 -20 16 -30 16 -14
0 -17 -8 -16 -45z"/>
<path d="M220 2774 c0 -11 36 -46 60 -58 8 -4 5 1 -7 11 -12 10 -29 27 -37 38
-9 11 -16 15 -16 9z"/>
<path d="M1730 2769 c0 -5 5 -7 10 -4 6 3 10 8 10 11 0 2 -4 4 -10 4 -5 0 -10
-5 -10 -11z"/>
<path d="M2291 2742 c-18 -19 -25 -30 -15 -24 22 12 59 51 53 56 -2 2 -19 -12
-38 -32z"/>
<path d="M803 2735 c0 -8 4 -12 9 -9 4 3 8 9 8 15 0 5 -4 9 -8 9 -5 0 -9 -7
-9 -15z"/>
<path d="M550 2720 c0 -5 5 -10 11 -10 5 0 7 5 4 10 -3 6 -8 10 -11 10 -2 0
-4 -4 -4 -10z"/>
<path d="M1960 2709 c0 -5 5 -7 10 -4 6 3 10 8 10 11 0 2 -4 4 -10 4 -5 0 -10
-5 -10 -11z"/>
<path d="M736 2701 c-11 -4 -15 -10 -10 -13 5 -4 18 0 29 8 20 15 12 17 -19 5z"/>
<path d="M1467 2688 c-14 -20 -16 -21 -16 -5 -1 29 -21 9 -21 -21 0 -35 -23
-68 -61 -88 -35 -17 -59 -6 -59 28 0 16 -6 19 -32 16 -31 -3 -33 -6 -33 -41
-1 -28 -8 -44 -28 -63 -15 -14 -27 -28 -27 -31 0 -4 13 6 29 21 20 19 35 26
49 22 22 -7 54 2 47 14 -2 4 -15 5 -28 3 -19 -4 -26 0 -30 17 -8 30 2 57 14
38 7 -10 9 -10 9 0 0 6 4 12 9 12 11 0 22 -37 12 -43 -3 -2 0 -2 7 -1 7 2 18
-5 24 -16 12 -19 13 -18 44 5 18 14 43 26 56 26 17 1 18 3 6 6 -10 2 -18 8
-18 11 0 7 26 49 56 90 9 12 14 22 11 22 -2 0 -12 -10 -20 -22z"/>
<path d="M321 2679 c50 -45 62 -74 56 -137 -3 -36 -2 -48 3 -32 23 70 -2 143
-60 178 -25 15 -25 15 1 -9z"/>
<path d="M800 2689 c0 -5 5 -7 10 -4 6 3 10 8 10 11 0 2 -4 4 -10 4 -5 0 -10
-5 -10 -11z"/>
<path d="M1745 2690 c3 -5 8 -10 11 -10 2 0 4 5 4 10 0 6 -5 10 -11 10 -5 0
-7 -4 -4 -10z"/>
<path d="M1815 2690 c3 -5 8 -10 11 -10 2 0 4 5 4 10 0 6 -5 10 -11 10 -5 0
-7 -4 -4 -10z"/>
<path d="M2216 2679 c-50 -39 -67 -103 -46 -169 5 -16 6 -4 3 32 -6 63 6 94
56 135 33 29 23 30 -13 2z"/>
<path d="M570 2680 c0 -5 5 -10 10 -10 6 0 10 5 10 10 0 6 -4 10 -10 10 -5 0
-10 -4 -10 -10z"/>
<path d="M1965 2680 c3 -5 11 -10 16 -10 6 0 7 5 4 10 -3 6 -11 10 -16 10 -6
0 -7 -4 -4 -10z"/>
<path d="M543 2619 c-13 -5 -23 -11 -23 -13 0 -3 7 -2 17 1 12 5 14 3 8 -7 -6
-10 -4 -12 8 -7 9 3 17 1 20 -6 2 -6 6 -2 9 10 7 26 -8 34 -39 22z"/>
<path d="M1984 2621 c-12 -8 -14 -41 -3 -41 5 0 9 5 9 11 0 5 5 7 10 4 6 -3
10 -1 10 5 0 7 7 9 16 6 8 -3 13 -2 10 3 -8 12 -42 20 -52 12z"/>
<path d="M810 2605 c-7 -9 -10 -18 -7 -21 3 -3 10 4 17 15 13 25 8 27 -10 6z"/>
<path d="M1697 2601 c-4 -17 -3 -21 5 -13 5 5 8 16 6 23 -3 8 -7 3 -11 -10z"/>
<path d="M1730 2606 c0 -2 7 -9 15 -16 9 -7 15 -8 15 -2 0 5 -7 12 -15 16 -8
3 -15 4 -15 2z"/>
<path d="M1183 2576 c15 -14 27 -31 27 -38 0 -8 5 -5 11 5 6 10 9 19 7 20 -1
1 -19 10 -38 20 l-35 19 28 -26z"/>
<path d="M740 2580 c0 -5 5 -10 10 -10 6 0 10 5 10 10 0 6 -4 10 -10 10 -5 0
-10 -4 -10 -10z"/>
<path d="M1045 2571 c-33 -9 -69 -23 -80 -30 l-20 -13 20 8 c11 4 58 18 105
30 47 13 74 23 60 23 -14 0 -52 -8 -85 -18z"/>
<path d="M1800 2579 c0 -5 5 -7 10 -4 6 3 10 8 10 11 0 2 -4 4 -10 4 -5 0 -10
-5 -10 -11z"/>
<path d="M819 2563 c-13 -16 -12 -17 4 -4 9 7 17 15 17 17 0 8 -8 3 -21 -13z"/>
<path d="M875 2560 c10 -11 20 -20 23 -20 3 0 -3 9 -13 20 -10 11 -20 20 -23
20 -3 0 3 -9 13 -20z"/>
<path d="M1530 2554 c115 -39 133 -44 126 -37 -10 10 -167 63 -185 63 -9 -1
18 -12 59 -26z"/>
<path d="M595 2560 c-3 -5 1 -10 10 -10 9 0 13 5 10 10 -3 6 -8 10 -10 10 -2
0 -7 -4 -10 -10z"/>
<path d="M1940 2560 c-12 -8 -10 -10 8 -10 13 0 20 4 17 10 -7 12 -6 12 -25 0z"/>
<path d="M918 2523 c7 -3 16 -2 19 1 4 3 -2 6 -13 5 -11 0 -14 -3 -6 -6z"/>
<path d="M1173 2518 c-15 -20 -25 -38 -20 -38 3 0 12 11 21 25 17 26 16 35 -1
13z"/>
<path d="M1927 2519 c7 -7 15 -10 18 -7 3 3 -2 9 -12 12 -14 6 -15 5 -6 -5z"/>
<path d="M535 2510 c-3 -5 -2 -10 4 -10 5 0 13 5 16 10 3 6 2 10 -4 10 -5 0
-13 -4 -16 -10z"/>
<path d="M610 2509 c0 -5 5 -7 10 -4 6 3 10 8 10 11 0 2 -4 4 -10 4 -5 0 -10
-5 -10 -11z"/>
<path d="M1390 2500 c6 -11 13 -20 16 -20 2 0 0 9 -6 20 -6 11 -13 20 -16 20
-2 0 0 -9 6 -20z"/>
<path d="M2000 2510 c0 -5 7 -10 16 -10 8 0 12 5 9 10 -3 6 -10 10 -16 10 -5
0 -9 -4 -9 -10z"/>
<path d="M1779 2493 c-13 -16 -12 -17 4 -4 9 7 17 15 17 17 0 8 -8 3 -21 -13z"/>
<path d="M675 2490 c3 -5 8 -10 11 -10 2 0 4 5 4 10 0 6 -5 10 -11 10 -5 0 -7
-4 -4 -10z"/>
<path d="M1087 2465 c-15 -19 -24 -35 -20 -34 11 1 67 69 56 69 -4 0 -21 -16
-36 -35z"/>
<path d="M1450 2475 c13 -14 25 -25 27 -25 9 0 -33 49 -41 50 -5 0 1 -11 14
-25z"/>
<path d="M1495 2480 c3 -5 8 -10 11 -10 2 0 4 5 4 10 0 6 -5 10 -11 10 -5 0
-7 -4 -4 -10z"/>
<path d="M365 2446 c2 -22 9 -44 15 -50 7 -7 8 -2 1 19 -5 17 -12 39 -15 50
-3 11 -3 2 -1 -19z"/>
<path d="M655 2470 c-3 -5 -1 -10 4 -10 6 0 11 5 11 10 0 6 -2 10 -4 10 -3 0
-8 -4 -11 -10z"/>
<path d="M1721 2464 c13 -16 29 -19 29 -5 0 5 -9 11 -21 14 -16 4 -18 3 -8 -9z"/>
<path d="M2174 2435 c-5 -24 -7 -42 -2 -39 8 5 23 73 16 79 -2 2 -8 -16 -14
-40z"/>
<path d="M790 2443 c-21 -22 -22 -24 -4 -15 23 12 51 43 38 41 -5 -1 -20 -12
-34 -26z"/>
<path d="M1135 2460 c-3 -5 -1 -10 4 -10 6 0 11 5 11 10 0 6 -2 10 -4 10 -3 0
-8 -4 -11 -10z"/>
<path d="M1410 2461 c0 -5 7 -12 16 -15 14 -5 15 -4 4 9 -14 17 -20 19 -20 6z"/>
<path d="M548 2444 c-23 -12 -55 -71 -44 -81 2 -3 9 11 15 30 16 47 60 67 96
43 51 -33 51 -89 2 -146 l-22 -25 24 20 c48 40 60 116 21 140 -6 4 -9 12 -7
19 7 17 -52 17 -85 0z"/>
<path d="M1005 2440 c-10 -11 -14 -20 -9 -20 5 0 15 9 22 20 7 11 11 20 9 20
-2 0 -12 -9 -22 -20z"/>
<path d="M1938 2453 c-9 -2 -19 -11 -22 -20 -5 -12 -3 -13 7 -5 7 6 24 16 38
21 24 10 9 13 -23 4z"/>
<path d="M925 2430 c-3 -5 -1 -10 4 -10 6 0 11 5 11 10 0 6 -2 10 -4 10 -3 0
-8 -4 -11 -10z"/>
<path d="M1550 2430 c0 -5 5 -10 11 -10 5 0 7 5 4 10 -3 6 -8 10 -11 10 -2 0
-4 -4 -4 -10z"/>
<path d="M1819 2382 c26 -26 62 -68 80 -92 17 -23 31 -38 31 -32 0 6 -4 14
-10 17 -5 3 -10 11 -10 17 0 6 7 5 18 -3 15 -13 16 -12 3 3 -7 10 -16 16 -20
14 -4 -3 -33 24 -65 60 -31 35 -61 64 -66 64 -5 0 13 -22 39 -48z"/>
<path d="M2037 2385 c3 -22 8 -43 10 -47 6 -10 60 -10 67 0 2 4 -11 6 -30 4
-30 -4 -34 -1 -35 19 0 13 -4 33 -9 44 -7 14 -8 8 -3 -20z"/>
<path d="M1893 2375 c0 -22 2 -30 4 -17 2 12 2 30 0 40 -3 9 -5 -1 -4 -23z"/>
<path d="M1155 2390 c-18 -5 0 -6 43 -3 l72 6 0 -709 c-1 -582 -3 -716 -15
-749 -12 -35 -12 -38 1 -21 7 11 14 25 14 31 0 7 18 20 39 30 38 17 59 17 106
1 11 -4 7 0 -9 9 -16 10 -39 15 -55 12 -56 -12 -64 -12 -68 -2 -2 6 17 17 42
24 35 10 52 11 74 2 21 -9 34 -9 55 0 22 10 34 10 62 0 28 -10 42 -10 65 -1
23 10 35 10 58 0 23 -9 37 -9 64 1 28 10 41 10 66 -1 18 -7 34 -11 36 -8 3 3
-13 11 -34 18 -32 10 -46 10 -70 0 -25 -10 -37 -10 -61 0 -24 10 -36 10 -59 0
-23 -9 -37 -9 -65 1 -28 10 -41 10 -62 1 -20 -10 -33 -10 -60 0 -25 9 -39 9
-59 0 -34 -16 -55 -15 -55 1 0 21 84 39 115 25 20 -9 34 -9 58 0 25 9 40 9 64
0 24 -9 37 -9 55 0 22 11 22 11 -5 6 -15 -4 -41 -1 -58 6 -24 10 -35 10 -55 0
-20 -11 -31 -11 -58 -2 -24 9 -41 9 -60 2 -59 -22 -55 -67 -56 654 l0 665 47
4 c27 2 5 4 -47 4 -52 0 -108 -3 -125 -7z"/>
<path d="M1381 2386 c2 -2 22 -6 44 -9 28 -5 34 -4 20 3 -19 8 -73 14 -64 6z"/>
<path d="M390 2372 c0 -12 19 -26 26 -19 2 2 -2 10 -11 17 -9 8 -15 8 -15 2z"/>
<path d="M1042 2358 c-29 -12 -51 -23 -49 -25 2 -2 33 8 68 21 35 14 57 25 49
25 -8 0 -39 -10 -68 -21z"/>
<path d="M2140 2365 c-8 -9 -8 -15 -2 -15 12 0 26 19 19 26 -2 2 -10 -2 -17
-11z"/>
<path d="M1741 2339 c-6 -18 -9 -34 -7 -36 2 -2 9 10 15 28 6 18 9 34 7 36 -2
2 -9 -10 -15 -28z"/>
<path d="M1540 2335 c25 -13 50 -24 55 -24 6 0 -10 11 -35 24 -25 13 -49 24
-55 24 -5 0 10 -11 35 -24z"/>
<path d="M437 2338 c6 -10 54 -10 70 0 7 4 -8 7 -32 7 -23 0 -41 -3 -38 -7z"/>
<path d="M756 2342 c-3 -5 12 -16 32 -26 27 -12 32 -13 17 -2 -11 9 -25 20
-32 26 -7 5 -14 6 -17 2z"/>
<path d="M662 2310 c-12 -16 -22 -32 -22 -37 0 -4 11 8 25 27 14 19 25 35 25
37 0 8 -8 0 -28 -27z"/>
<path d="M268 2291 c-60 -55 -103 -131 -147 -259 -21 -61 -53 -131 -72 -156
-34 -48 -31 -73 7 -63 16 4 15 5 -3 6 -13 0 -23 3 -23 6 0 2 20 23 44 46 33
29 64 79 117 181 60 116 80 146 119 177 26 21 61 43 78 50 28 12 34 10 69 -13
24 -17 50 -26 73 -25 35 1 34 2 -7 8 -24 4 -53 17 -66 29 -14 13 -36 22 -56
22 -17 0 -45 7 -61 15 -29 15 -31 15 -72 -24z"/>
<path d="M2210 2314 c-14 -7 -42 -13 -62 -14 -21 0 -38 -4 -38 -8 0 -5 -15
-17 -33 -27 -32 -17 -65 -17 -112 -1 -13 5 -11 2 5 -8 37 -23 82 -19 125 10
34 23 41 24 68 13 16 -7 51 -29 77 -50 39 -31 59 -61 119 -177 53 -102 84
-152 117 -181 24 -23 44 -44 44 -46 0 -3 -10 -6 -22 -6 -19 -1 -20 -2 -4 -6
38 -10 40 14 3 69 -19 29 -49 96 -67 148 -38 114 -71 177 -123 236 -51 58 -66
66 -97 48z"/>
<path d="M944 2305 c-10 -8 -14 -14 -9 -14 6 0 19 6 29 14 11 8 15 15 10 15
-6 0 -19 -7 -30 -15z"/>
<path d="M838 2293 c7 -3 16 -2 19 1 4 3 -2 6 -13 5 -11 0 -14 -3 -6 -6z"/>
<path d="M1615 2290 c3 -5 11 -10 16 -10 6 0 7 5 4 10 -3 6 -11 10 -16 10 -6
0 -7 -4 -4 -10z"/>
<path d="M1721 2274 c0 -11 3 -14 6 -6 3 7 2 16 -1 19 -3 4 -6 -2 -5 -13z"/>
<path d="M732 2266 c7 -8 15 -12 17 -11 5 6 -10 25 -20 25 -5 0 -4 -6 3 -14z"/>
<path d="M867 2241 c-23 -22 -40 -41 -37 -43 3 -3 24 15 47 39 53 54 46 56
-10 4z"/>
<path d="M1774 2255 c-9 -13 -14 -30 -11 -37 4 -8 6 -7 6 4 1 10 11 26 23 38
12 11 17 20 10 20 -6 0 -19 -11 -28 -25z"/>
<path d="M1680 2235 c13 -14 26 -25 28 -25 3 0 -5 11 -18 25 -13 14 -26 25
-28 25 -3 0 5 -11 18 -25z"/>
<path d="M675 2240 c-3 -5 1 -10 10 -10 9 0 13 5 10 10 -3 6 -8 10 -10 10 -2
0 -7 -4 -10 -10z"/>
<path d="M753 2233 c9 -2 23 -2 30 0 6 3 -1 5 -18 5 -16 0 -22 -2 -12 -5z"/>
<path d="M715 2210 c3 -5 11 -10 16 -10 6 0 7 5 4 10 -3 6 -11 10 -16 10 -6 0
-7 -4 -4 -10z"/>
<path d="M1173 2175 c0 -27 2 -38 4 -22 2 15 2 37 0 50 -2 12 -4 0 -4 -28z"/>
<path d="M1095 2200 c3 -5 8 -10 11 -10 2 0 4 5 4 10 0 6 -5 10 -11 10 -5 0
-7 -4 -4 -10z"/>
<path d="M1960 2209 c0 -3 18 -44 39 -90 62 -133 108 -319 124 -504 4 -40 4
-40 5 7 3 68 -32 260 -67 365 -25 78 -99 240 -101 222z"/>
<path d="M755 2180 c3 -5 8 -10 11 -10 2 0 4 5 4 10 0 6 -5 10 -11 10 -5 0 -7
-4 -4 -10z"/>
<path d="M1736 2177 c3 -10 9 -15 12 -12 3 3 0 11 -7 18 -10 9 -11 8 -5 -6z"/>
<path d="M536 2096 c-36 -86 -86 -255 -86 -291 1 -11 14 30 29 90 16 61 45
148 65 194 20 47 34 86 32 88 -2 2 -20 -34 -40 -81z"/>
<path d="M990 2176 c0 -2 8 -10 18 -17 15 -13 16 -12 3 4 -13 16 -21 21 -21
13z"/>
<path d="M1111 2175 c1 -19 18 -51 18 -35 0 8 -4 22 -9 30 -5 8 -9 11 -9 5z"/>
<path d="M1581 2153 c-1 -30 -4 -33 -33 -34 l-33 -1 33 -9 c30 -9 32 -13 34
-57 l1 -47 4 43 c4 38 8 45 36 57 l32 13 -30 4 c-24 2 -31 9 -36 33 l-7 30 -1
-32z"/>
<path d="M385 2160 c-12 -19 16 -30 55 -24 49 9 73 23 39 24 -15 0 -40 3 -57
6 -18 4 -32 1 -37 -6z"/>
<path d="M2085 2161 l-40 -7 49 -11 c54 -12 76 -8 76 13 0 15 -17 16 -85 5z"/>
<path d="M1620 2150 c-9 -6 -10 -10 -3 -10 6 0 15 5 18 10 8 12 4 12 -15 0z"/>
<path d="M1820 2129 c0 -5 5 -7 10 -4 6 3 10 8 10 11 0 2 -4 4 -10 4 -5 0 -10
-5 -10 -11z"/>
<path d="M606 2123 c-3 -3 17 -17 46 -30 66 -30 71 -25 8 9 -27 14 -51 24 -54
21z"/>
<path d="M1780 2119 c0 -4 16 -40 35 -80 19 -41 45 -112 59 -159 14 -47 25
-77 25 -68 1 29 -58 199 -89 258 -16 30 -29 52 -30 49z"/>
<path d="M730 2039 c-34 -74 -70 -183 -69 -209 0 -8 11 19 23 61 12 42 37 107
55 144 17 37 30 70 28 72 -2 2 -19 -29 -37 -68z"/>
<path d="M1547 2083 c-4 -3 -7 -11 -7 -17 0 -6 5 -5 12 2 6 6 9 14 7 17 -3 3
-9 2 -12 -2z"/>
<path d="M1867 2076 c-10 -8 -14 -16 -10 -19 5 -3 14 3 21 14 14 22 13 23 -11
5z"/>
<path d="M321 2041 c-38 -24 29 -40 89 -21 l25 7 -27 7 c-61 14 -74 15 -87 7z"/>
<path d="M581 2047 c2 -1 13 -9 24 -17 19 -14 19 -14 6 3 -7 9 -18 17 -24 17
-6 0 -8 -1 -6 -3z"/>
<path d="M1966 2035 c-11 -8 -34 -18 -53 -21 -18 -3 -33 -10 -33 -14 0 -13 99
22 104 37 7 16 6 16 -18 -2z"/>
<path d="M2185 2042 c-50 -5 -63 -13 -40 -22 34 -14 95 -12 95 4 0 17 -16 23
-55 18z"/>
<path d="M550 2003 c0 -6 25 -19 55 -30 30 -12 55 -17 55 -13 0 4 -19 13 -42
19 -24 7 -49 18 -55 23 -8 7 -13 7 -13 1z"/>
<path d="M893 1980 c-30 -12 -29 -18 2 -12 14 2 25 8 25 13 0 5 -1 9 -2 8 -2
0 -13 -4 -25 -9z"/>
<path d="M1439 1980 c0 -3 -2 -13 -4 -22 -2 -10 2 -21 7 -25 7 -3 8 -1 4 5 -4
7 -2 12 3 12 6 0 11 -5 11 -11 0 -5 4 -8 9 -5 10 7 9 31 -2 42 -4 4 -7 1 -7
-7 0 -11 -2 -11 -10 1 -5 8 -10 13 -11 10z"/>
<path d="M1380 1945 c0 -16 6 -25 16 -25 13 0 14 3 4 15 -6 8 -9 19 -5 25 3 5
1 10 -4 10 -6 0 -11 -11 -11 -25z"/>
<path d="M1515 1960 c4 -6 1 -17 -5 -25 -10 -12 -9 -15 4 -15 10 0 16 9 16 25
0 14 -5 25 -11 25 -5 0 -7 -5 -4 -10z"/>
<path d="M1700 1953 c0 -7 -6 -10 -12 -8 -17 6 -45 -12 -35 -22 5 -4 12 -1 16
6 5 8 14 10 21 6 7 -4 16 -2 21 6 8 12 10 12 18 0 5 -8 14 -10 21 -6 7 4 16 2
21 -6 4 -7 11 -10 16 -6 10 10 -18 28 -34 22 -7 -2 -13 1 -13 8 0 7 -9 13 -20
13 -11 0 -20 -6 -20 -13z"/>
<path d="M1980 1955 c-8 -9 -8 -15 -2 -15 12 0 26 19 19 26 -2 2 -10 -2 -17
-11z"/>
<path d="M950 1951 c0 -6 4 -13 10 -16 6 -3 7 1 4 9 -7 18 -14 21 -14 7z"/>
<path d="M271 1921 c-10 -6 1 -8 30 -4 24 3 46 7 48 9 10 9 -65 3 -78 -5z"/>
<path d="M2201 1926 c2 -2 24 -6 48 -9 29 -4 40 -2 30 4 -13 8 -88 14 -78 5z"/>
<path d="M821 1904 c0 -11 3 -14 6 -6 3 7 2 16 -1 19 -3 4 -6 -2 -5 -13z"/>
<path d="M1428 1903 c18 -2 45 -2 60 0 15 2 0 4 -33 4 -33 0 -45 -2 -27 -4z"/>
<path d="M1693 1903 c15 -2 39 -2 55 0 15 2 2 4 -28 4 -30 0 -43 -2 -27 -4z"/>
<path d="M224 1884 c-18 -14 -18 -15 4 -4 12 6 22 13 22 15 0 8 -5 6 -26 -11z"/>
<path d="M375 1855 c0 -24 3 -38 7 -32 4 7 8 21 8 32 0 11 -4 25 -8 32 -4 6
-7 -8 -7 -32z"/>
<path d="M2164 1874 c-4 -14 -3 -34 2 -45 7 -15 9 -8 9 26 0 52 -2 55 -11 19z"/>
<path d="M2300 1896 c0 -3 9 -10 20 -16 11 -6 20 -8 20 -6 0 3 -9 10 -20 16
-11 6 -20 8 -20 6z"/>
<path d="M1980 1880 c0 -5 7 -7 15 -4 8 4 15 8 15 10 0 2 -7 4 -15 4 -8 0 -15
-4 -15 -10z"/>
<path d="M1933 1873 c9 -2 23 -2 30 0 6 3 -1 5 -18 5 -16 0 -22 -2 -12 -5z"/>
<path d="M1567 1856 c-10 -8 -15 -20 -11 -30 4 -10 1 -16 -7 -16 -8 0 -25 -3
-38 -7 -20 -5 -22 -3 -16 16 4 15 2 21 -8 21 -25 0 -6 -64 21 -68 16 -3 20 1
16 12 -4 11 -1 16 11 16 9 0 13 -4 10 -10 -3 -5 3 -10 14 -10 12 0 20 5 19 11
-2 6 3 14 11 17 10 3 12 0 8 -12 -5 -11 -1 -16 13 -16 11 0 20 5 20 10 0 6 7
10 16 10 10 0 14 -6 11 -14 -3 -8 2 -16 14 -19 14 -4 19 0 19 14 0 14 -10 20
-41 25 -29 5 -39 11 -35 21 3 8 0 21 -8 29 -17 17 -16 17 -39 0z m33 -16 c0
-5 -4 -10 -10 -10 -5 0 -10 5 -10 10 0 6 5 10 10 10 6 0 10 -4 10 -10z"/>
<path d="M1692 1845 c-13 -7 -20 -15 -15 -18 5 -3 20 3 33 14 28 21 17 24 -18
4z"/>
<path d="M167 1844 c-3 -3 -23 -12 -44 -19 -21 -8 -29 -14 -18 -14 21 0 98 38
79 39 -6 0 -13 -3 -17 -6z"/>
<path d="M2390 1831 c19 -11 44 -20 55 -20 12 0 7 5 -15 13 -68 26 -75 27 -40
7z"/>
<path d="M652 1790 c0 -14 2 -19 5 -12 2 6 2 18 0 25 -3 6 -5 1 -5 -13z"/>
<path d="M320 1774 c-11 -12 -10 -18 5 -32 18 -16 18 -16 5 2 -13 16 -12 20 5
32 10 8 14 14 8 14 -6 0 -16 -7 -23 -16z"/>
<path d="M1906 1745 c4 -27 10 -84 15 -125 l8 -75 -5 90 c-2 50 -9 106 -14
125 -8 30 -9 29 -4 -15z"/>
<path d="M2215 1776 c17 -12 18 -16 5 -32 -13 -18 -13 -18 5 -2 15 14 16 20 5
32 -7 9 -17 16 -23 16 -6 0 -2 -6 8 -14z"/>
<path d="M435 1717 c-4 -36 -5 -71 -3 -79 3 -7 8 20 12 61 3 41 4 76 2 78 -2
3 -7 -25 -11 -60z"/>
<path d="M580 1770 c0 -5 5 -10 11 -10 5 0 7 5 4 10 -3 6 -8 10 -11 10 -2 0
-4 -4 -4 -10z"/>
<path d="M798 1764 c-32 -17 -33 -20 -15 -39 11 -11 16 -7 29 21 9 19 15 34
14 34 0 -1 -13 -8 -28 -16z"/>
<path d="M1150 1770 c-9 -6 -10 -10 -3 -10 6 0 15 5 18 10 8 12 4 12 -15 0z"/>
<path d="M66 1667 l-47 -99 10 -128 c12 -146 38 -275 74 -370 26 -68 87 -201
97 -210 3 -3 23 -32 44 -65 22 -33 77 -97 122 -142 94 -93 156 -135 84 -57
-169 182 -289 443 -335 732 -19 110 -21 372 -4 382 6 4 9 18 7 31 -4 19 -15 3
-52 -74z"/>
<path d="M642 1735 c0 -16 2 -22 5 -12 2 9 2 23 0 30 -3 6 -5 -1 -5 -18z"/>
<path d="M1516 1751 c-7 -11 58 -18 114 -13 64 6 35 22 -40 22 -38 0 -71 -4
-74 -9z"/>
<path d="M2430 1735 c0 -14 5 -25 10 -25 16 0 12 -282 -5 -385 -47 -286 -167
-548 -335 -729 -72 -78 -10 -36 84 57 45 45 100 109 122 142 21 33 41 62 44
65 10 9 71 142 97 210 36 95 62 224 74 370 l10 128 -45 96 c-24 53 -47 96 -50
96 -3 0 -6 -11 -6 -25z"/>
<path d="M505 1723 c-19 -11 -25 -18 -16 -21 7 -2 16 0 20 5 3 5 15 15 26 21
31 18 4 13 -30 -5z"/>
<path d="M347 1679 c4 -38 1 -49 -18 -72 -13 -14 -40 -31 -59 -37 l-35 -10 35
5 c66 9 106 79 80 140 -6 13 -7 5 -3 -26z"/>
<path d="M2196 1698 c-17 -65 21 -124 84 -133 l35 -5 -35 10 c-19 6 -46 23
-59 37 -19 22 -22 34 -17 70 6 46 2 57 -8 21z"/>
<path d="M1376 1689 c-12 -16 -20 -20 -23 -11 -3 6 -9 10 -14 6 -5 -3 -7 -10
-4 -15 8 -12 56 -12 53 0 -2 5 2 9 7 9 6 0 9 -4 8 -9 -5 -15 44 -10 57 7 11
12 11 15 -1 12 -8 -2 -17 -7 -21 -12 -4 -6 -15 1 -26 14 l-19 23 -17 -24z"/>
<path d="M121 1690 c0 -14 28 -72 29 -59 0 4 -7 22 -15 40 -8 19 -14 27 -14
19z"/>
<path d="M633 1660 c0 -25 2 -35 4 -22 2 12 2 32 0 45 -2 12 -4 2 -4 -23z"/>
<path d="M1755 1683 c-14 -14 -18 -14 -26 -2 -7 11 -9 11 -9 -3 0 -13 8 -18
25 -18 16 0 25 6 25 15 0 8 5 15 10 15 6 0 10 -7 10 -15 0 -9 9 -15 25 -15 17
0 25 5 25 18 0 14 -2 14 -9 3 -8 -12 -12 -12 -26 2 -9 10 -20 17 -25 17 -5 0
-16 -7 -25 -17z"/>
<path d="M2418 1685 c-3 -11 -9 -29 -13 -40 -3 -11 1 -7 10 8 9 16 15 33 12
40 -2 6 -6 3 -9 -8z"/>
<path d="M864 1679 c-4 -7 -3 -10 4 -5 6 3 15 -2 21 -11 5 -10 12 -15 15 -12
4 3 -2 14 -13 23 -14 13 -21 14 -27 5z"/>
<path d="M794 1626 c0 -24 4 -42 9 -39 4 2 7 -1 7 -8 0 -7 6 -4 14 7 13 16 13
20 0 27 -8 4 -14 17 -14 27 0 10 -4 21 -9 24 -5 3 -8 -14 -7 -38z"/>
<path d="M1998 1653 c6 -2 18 -2 25 0 6 3 1 5 -13 5 -14 0 -19 -2 -12 -5z"/>
<path d="M1368 1643 c18 -2 45 -2 60 0 15 2 0 4 -33 4 -33 0 -45 -2 -27 -4z"/>
<path d="M1753 1643 c15 -2 39 -2 55 0 15 2 2 4 -28 4 -30 0 -43 -2 -27 -4z"/>
<path d="M1160 1585 c-30 -30 -52 -55 -49 -55 8 0 110 102 106 106 -2 2 -28
-21 -57 -51z"/>
<path d="M481 1626 c10 -11 109 -24 109 -15 0 5 -15 9 -32 9 -18 0 -44 3 -58
7 -14 3 -22 3 -19 -1z"/>
<path d="M920 1616 c0 -9 3 -16 8 -16 4 0 13 -9 20 -21 11 -17 11 -24 0 -37
-8 -11 -4 -10 11 3 17 14 25 16 28 8 3 -7 12 -13 20 -13 10 0 13 -6 8 -17 -5
-14 -3 -15 5 -6 9 8 17 6 31 -8 11 -11 24 -17 30 -14 5 4 -14 23 -42 43 -28
20 -66 50 -85 66 -26 21 -34 24 -34 12z"/>
<path d="M160 1613 c0 -15 49 -45 63 -39 8 3 7 5 -2 5 -8 1 -25 11 -38 23 -13
12 -23 17 -23 11z"/>
<path d="M424 1470 c0 -85 2 -120 3 -77 2 42 2 112 0 155 -1 42 -3 7 -3 -78z"/>
<path d="M2369 1604 c-7 -9 -22 -20 -34 -24 -12 -6 -14 -9 -5 -9 18 -1 67 35
59 44 -3 3 -12 -2 -20 -11z"/>
<path d="M624 1470 c0 -74 1 -105 3 -67 2 37 2 97 0 135 -2 37 -3 6 -3 -68z"/>
<path d="M875 1580 c-3 -5 1 -10 10 -10 9 0 13 5 10 10 -3 6 -8 10 -10 10 -2
0 -7 -4 -10 -10z"/>
<path d="M1732 1565 c0 -16 2 -22 5 -12 2 9 2 23 0 30 -3 6 -5 -1 -5 -18z"/>
<path d="M1822 1570 c0 -14 2 -19 5 -12 2 6 2 18 0 25 -3 6 -5 1 -5 -13z"/>
<path d="M1970 1569 c0 -5 9 -9 20 -9 11 0 20 2 20 4 0 2 -9 6 -20 9 -11 3
-20 1 -20 -4z"/>
<path d="M2033 1573 c9 -2 23 -2 30 0 6 3 -1 5 -18 5 -16 0 -22 -2 -12 -5z"/>
<path d="M2134 1475 c0 -49 1 -71 3 -48 2 23 2 64 0 90 -2 26 -3 8 -3 -42z"/>
<path d="M1132 1512 c-10 -3 -7 -9 8 -19 12 -8 24 -12 27 -9 4 3 1 6 -5 6 -6
0 -12 6 -14 13 -2 8 -9 12 -16 9z"/>
<path d="M1933 1470 c0 -30 2 -43 4 -27 2 15 2 39 0 55 -2 15 -4 2 -4 -28z"/>
<path d="M1211 1494 c0 -11 3 -14 6 -6 3 7 2 16 -1 19 -3 4 -6 -2 -5 -13z"/>
<path d="M1342 1480 c0 -14 2 -19 5 -12 2 6 2 18 0 25 -3 6 -5 1 -5 -13z"/>
<path d="M1047 1462 c-21 -23 -22 -39 -3 -23 11 10 15 8 19 -6 3 -10 5 -3 6
15 1 37 0 38 -22 14z"/>
<path d="M1727 1449 c4 -13 8 -18 11 -10 2 7 -1 18 -6 23 -8 8 -9 4 -5 -13z"/>
<path d="M195 1420 c-19 -30 41 -39 105 -16 l35 13 -49 6 c-66 9 -84 9 -91 -3z"/>
<path d="M1993 1420 c-34 -14 -28 -21 7 -9 17 6 30 13 30 15 0 6 -12 4 -37 -6z"/>
<path d="M2268 1423 c-43 -11 -4 -33 60 -33 27 0 33 4 30 18 -3 17 -52 26 -90
15z"/>
<path d="M548 1413 c7 -3 16 -2 19 1 4 3 -2 6 -13 5 -11 0 -14 -3 -6 -6z"/>
<path d="M1087 1401 c-4 -17 -3 -21 5 -13 5 5 8 16 6 23 -3 8 -7 3 -11 -10z"/>
<path d="M1832 1395 c0 -16 2 -22 5 -12 2 9 2 23 0 30 -3 6 -5 -1 -5 -18z"/>
<path d="M483 1403 c9 -2 25 -2 35 0 9 3 1 5 -18 5 -19 0 -27 -2 -17 -5z"/>
<path d="M1029 1383 c-13 -16 -12 -17 4 -4 9 7 17 15 17 17 0 8 -8 3 -21 -13z"/>
<path d="M1578 1383 c7 -3 16 -2 19 1 4 3 -2 6 -13 5 -11 0 -14 -3 -6 -6z"/>
<path d="M1618 1383 c7 -3 16 -2 19 1 4 3 -2 6 -13 5 -11 0 -14 -3 -6 -6z"/>
<path d="M1720 1379 c0 -7 -11 -9 -27 -6 -39 7 -68 -25 -64 -70 1 -18 21 -16
21 1 0 8 15 20 34 27 19 7 37 20 39 30 3 13 17 19 48 22 l44 4 -47 1 c-30 1
-48 -2 -48 -9z"/>
<path d="M1923 1335 c0 -33 2 -45 4 -27 2 18 2 45 0 60 -2 15 -4 0 -4 -33z"/>
<path d="M1513 1373 c-19 -7 -16 -21 8 -28 11 -4 24 -16 29 -28 8 -21 9 -20 9
5 2 50 -12 65 -46 51z"/>
<path d="M1850 1366 c0 -2 8 -10 18 -17 15 -13 16 -12 3 4 -13 16 -21 21 -21
13z"/>
<path d="M2123 1315 c0 -33 2 -45 4 -27 2 18 2 45 0 60 -2 15 -4 0 -4 -33z"/>
<path d="M555 1350 c-3 -6 1 -7 9 -4 18 7 21 14 7 14 -6 0 -13 -4 -16 -10z"/>
<path d="M1448 1343 c6 -2 18 -2 25 0 6 3 1 5 -13 5 -14 0 -19 -2 -12 -5z"/>
<path d="M500 1330 c-8 -5 -12 -12 -9 -15 4 -3 12 1 19 10 14 17 11 19 -10 5z"/>
<path d="M632 1290 c-1 -25 2 -40 6 -33 4 6 30 13 57 16 l50 3 -52 2 c-48 2
-52 4 -56 30 -3 17 -4 11 -5 -18z"/>
<path d="M830 1320 c-23 -7 -23 -8 9 -9 19 -1 44 -9 55 -18 15 -13 14 -10 -3
10 -14 15 -27 27 -30 26 -3 -1 -17 -5 -31 -9z"/>
<path d="M205 1300 c-18 -29 26 -39 86 -19 55 19 52 24 -16 27 -36 2 -66 -1
-70 -8z"/>
<path d="M433 1265 c0 -27 2 -38 4 -22 2 15 2 37 0 50 -2 12 -4 0 -4 -28z"/>
<path d="M970 1288 c0 -19 2 -20 10 -8 13 19 13 30 0 30 -5 0 -10 -10 -10 -22z"/>
<path d="M1023 1298 c-24 -31 -24 -38 -1 -38 19 0 20 2 8 10 -13 9 -13 11 0
19 8 6 12 13 9 16 -4 3 -11 0 -16 -7z"/>
<path d="M2247 1288 c52 -24 106 -24 101 0 -3 14 -15 17 -72 17 l-68 0 39 -17z"/>
<path d="M1529 1273 c-13 -16 -12 -17 4 -4 9 7 17 15 17 17 0 8 -8 3 -21 -13z"/>
<path d="M1136 1263 c-6 -14 -5 -15 5 -6 7 7 10 15 7 18 -3 3 -9 -2 -12 -12z"/>
<path d="M1683 1263 c9 -2 23 -2 30 0 6 3 -1 5 -18 5 -16 0 -22 -2 -12 -5z"/>
<path d="M1912 1240 c0 -19 2 -27 5 -17 2 9 2 25 0 35 -3 9 -5 1 -5 -18z"/>
<path d="M835 1220 c0 -22 1 -40 2 -40 10 0 23 45 18 60 -10 33 -20 23 -20
-20z"/>
<path d="M1317 1253 c-11 -10 -8 -43 3 -43 6 0 10 11 10 25 0 26 -2 29 -13 18z"/>
<path d="M1841 1226 c-1 -16 0 -27 2 -25 1 2 9 13 17 23 8 11 10 17 3 13 -6
-4 -14 -1 -16 5 -3 7 -6 0 -6 -16z"/>
<path d="M2112 1220 c0 -19 2 -27 5 -17 2 9 2 25 0 35 -3 9 -5 1 -5 -18z"/>
<path d="M641 1220 c-2 -53 62 -280 79 -280 5 0 0 19 -10 43 -24 52 -25 64 -2
70 13 4 12 5 -5 6 -19 1 -24 11 -37 74 -8 39 -17 81 -19 92 -4 16 -5 15 -6 -5z"/>
<path d="M1110 1230 c-9 -6 -10 -10 -3 -10 6 0 15 5 18 10 8 12 4 12 -15 0z"/>
<path d="M1712 1210 c0 -19 2 -27 5 -17 2 9 2 25 0 35 -3 9 -5 1 -5 -18z"/>
<path d="M575 1210 c-3 -5 -1 -10 4 -10 6 0 11 5 11 10 0 6 -2 10 -4 10 -3 0
-8 -4 -11 -10z"/>
<path d="M925 1190 c-21 -16 -34 -30 -28 -30 10 0 81 59 72 60 -3 0 -23 -13
-44 -30z"/>
<path d="M445 1165 c8 -77 44 -211 82 -308 20 -48 37 -86 39 -84 2 2 -9 36
-25 74 -35 87 -57 160 -82 278 -11 54 -17 70 -14 40z"/>
<path d="M1049 1183 l-24 -26 33 23 c33 25 38 30 24 30 -5 0 -19 -12 -33 -27z"/>
<path d="M1164 1184 c3 -9 6 -21 7 -27 0 -7 4 -3 8 8 9 22 5 35 -11 35 -5 0
-7 -7 -4 -16z"/>
<path d="M1895 1152 c-8 -61 -11 -65 -62 -81 -34 -11 -48 -12 -73 -1 -25 11
-35 10 -56 0 -20 -11 -31 -11 -60 -1 -20 7 -37 11 -40 9 -2 -3 14 -11 36 -18
31 -10 46 -11 66 -1 20 9 34 9 60 -1 25 -9 39 -9 59 0 34 16 45 15 45 -3 0 -8
-8 -15 -17 -16 -11 0 -13 -3 -5 -6 23 -9 12 -29 -24 -42 -19 -7 -33 -15 -31
-18 3 -2 15 1 27 7 29 15 40 2 15 -17 -13 -9 -32 -13 -55 -9 -28 4 -31 3 -17
-5 11 -6 30 -9 43 -6 34 6 28 -25 -6 -34 -17 -5 -19 -7 -7 -8 10 -1 17 -7 14
-13 -2 -7 -13 -11 -23 -9 -10 2 -34 3 -51 2 -18 0 -44 0 -58 0 -14 0 -43 0
-65 0 -22 0 -51 0 -65 0 -14 0 -41 0 -60 0 -19 0 -45 -1 -57 -1 -13 -1 -39 1
-58 4 -33 5 -33 5 -4 -3 17 -4 36 -11 42 -15 7 -4 28 -2 47 5 27 10 40 10 61
1 20 -10 33 -10 60 0 27 10 41 10 66 0 25 -9 40 -9 65 0 24 9 38 9 58 0 31
-14 33 -34 3 -29 -13 2 -18 2 -11 0 6 -2 13 -12 15 -21 6 -25 63 92 98 197 28
86 47 181 37 181 -3 0 -8 -22 -12 -48z"/>
<path d="M225 1180 c-10 -16 4 -30 28 -30 12 0 40 9 62 19 l40 19 -62 1 c-34
1 -65 -3 -68 -9z"/>
<path d="M2230 1173 c19 -8 50 -17 67 -20 29 -5 33 -3 33 16 0 19 -5 21 -67
20 l-68 -1 35 -15z"/>
<path d="M508 1173 c-10 -2 -18 -9 -18 -14 0 -6 10 -5 23 2 37 20 36 23 -5 12z"/>
<path d="M2102 1155 c0 -16 2 -22 5 -12 2 9 2 23 0 30 -3 6 -5 -1 -5 -18z"/>
<path d="M1968 1153 c7 -3 16 -2 19 1 4 3 -2 6 -13 5 -11 0 -14 -3 -6 -6z"/>
<path d="M1322 1125 c0 -16 2 -22 5 -12 2 9 2 23 0 30 -3 6 -5 -1 -5 -18z"/>
<path d="M1462 1120 c0 -19 2 -27 5 -17 2 9 2 25 0 35 -3 9 -5 1 -5 -18z"/>
<path d="M2073 1034 c-13 -47 -39 -124 -58 -172 -48 -116 -50 -125 -22 -72 29
52 79 191 97 268 20 87 6 67 -17 -24z"/>
<path d="M578 1103 c7 -3 16 -2 19 1 4 3 -2 6 -13 5 -11 0 -14 -3 -6 -6z"/>
<path d="M937 1095 c3 -8 9 -12 14 -9 12 7 11 11 -5 17 -10 4 -13 1 -9 -8z"/>
<path d="M843 1093 c10 -3 16 -10 14 -17 -3 -6 6 -17 19 -23 l24 -11 -21 29
c-11 16 -28 28 -37 28 -14 -1 -14 -2 1 -6z"/>
<path d="M977 1079 c5 -5 29 -5 53 0 l45 9 -53 -1 c-29 0 -49 -4 -45 -8z"/>
<path d="M2186 1068 c8 -12 95 -37 110 -31 31 12 5 28 -53 33 -34 3 -59 2 -57
-2z"/>
<path d="M255 1060 c-8 -13 3 -30 18 -30 7 0 30 9 52 19 l40 19 -52 1 c-28 1
-55 -3 -58 -9z"/>
<path d="M798 1063 c6 -2 18 -2 25 0 6 3 1 5 -13 5 -14 0 -19 -2 -12 -5z"/>
<path d="M758 1053 c7 -3 16 -2 19 1 4 3 -2 6 -13 5 -11 0 -14 -3 -6 -6z"/>
<path d="M620 1041 c0 -6 -15 -18 -32 -26 -18 -8 -26 -14 -17 -15 22 0 66 36
57 46 -5 4 -8 2 -8 -5z"/>
<path d="M1450 990 c-10 -6 -2 -7 25 -3 49 7 58 13 19 13 -16 0 -36 -5 -44
-10z"/>
<path d="M1567 990 c-9 -6 -23 -8 -30 -4 -8 5 -9 4 -2 -4 8 -9 19 -9 43 0 25
10 39 10 63 1 20 -8 38 -9 48 -4 12 7 10 9 -9 10 -14 0 -41 3 -60 6 -19 3 -43
0 -53 -5z"/>
<path d="M1711 996 c2 -2 20 -6 39 -10 25 -4 31 -3 20 4 -14 9 -69 15 -59 6z"/>
<path d="M345 961 c-34 -4 -50 -11 -50 -20 0 -23 17 -22 70 3 28 14 46 24 40
24 -5 -1 -32 -4 -60 -7z"/>
<path d="M1323 957 c-18 -6 -33 -15 -33 -19 0 -15 51 -110 56 -105 3 2 -3 18
-13 36 -16 28 -16 33 -3 41 8 6 26 8 40 5 14 -4 39 -8 55 -10 27 -4 26 -3 -5
6 -38 12 -77 15 -99 8 -32 -10 -18 17 17 33 42 18 34 21 -15 5z"/>
<path d="M1504 955 c19 -11 39 -15 60 -10 17 3 42 6 56 6 20 1 22 2 7 10 -11
7 -24 6 -38 -2 -21 -11 -54 -9 -94 5 -11 4 -7 0 9 -9z"/>
<path d="M1717 964 c-3 -4 -21 -10 -39 -14 -27 -7 -29 -8 -8 -9 14 0 36 6 50
14 14 8 20 14 14 15 -6 0 -13 -3 -17 -6z"/>
<path d="M1393 948 c7 -4 21 -8 32 -8 11 0 25 4 32 8 6 4 -8 7 -32 7 -24 0
-38 -3 -32 -7z"/>
<path d="M2180 951 c0 -12 59 -30 78 -23 7 2 11 10 9 16 -5 14 -87 21 -87 7z"/>
<path d="M1894 943 c7 -7 98 -5 105 3 2 2 -22 4 -54 4 -32 0 -55 -3 -51 -7z"/>
<path d="M720 925 c0 -5 5 -17 10 -25 5 -8 10 -10 10 -5 0 6 -5 17 -10 25 -5
8 -10 11 -10 5z"/>
<path d="M1466 921 c-5 -7 -1 -9 9 -5 8 4 29 1 45 -6 24 -10 36 -10 60 0 23
10 36 10 59 0 23 -9 37 -9 72 5 26 9 31 13 14 9 -16 -3 -42 -5 -57 -5 -16 1
-41 1 -58 1 -16 0 -42 0 -57 -1 -16 0 -40 2 -54 6 -16 4 -29 2 -33 -4z"/>
<path d="M613 902 c-24 -9 -43 -19 -43 -24 0 -4 19 1 43 11 23 10 49 21 57 24
13 5 13 5 0 5 -8 1 -34 -7 -57 -16z"/>
<path d="M981 884 c0 -11 3 -14 6 -6 3 7 2 16 -1 19 -3 4 -6 -2 -5 -13z"/>
<path d="M1875 891 c6 -5 24 -13 40 -17 39 -9 30 0 -15 15 -19 6 -30 7 -25 2z"/>
<path d="M746 867 c3 -10 9 -15 12 -12 3 3 0 11 -7 18 -10 9 -11 8 -5 -6z"/>
<path d="M1131 864 c0 -11 3 -14 6 -6 3 7 2 16 -1 19 -3 4 -6 -2 -5 -13z"/>
<path d="M1216 853 c-6 -14 -5 -15 5 -6 7 7 10 15 7 18 -3 3 -9 -2 -12 -12z"/>
<path d="M1950 866 c0 -2 7 -7 16 -10 8 -3 12 -2 9 4 -6 10 -25 14 -25 6z"/>
<path d="M363 853 c-25 -5 -32 -33 -8 -33 20 0 65 22 65 32 0 8 -18 9 -57 1z"/>
<path d="M682 835 c-17 -37 -14 -45 4 -12 9 16 14 31 11 33 -2 2 -9 -7 -15
-21z"/>
<path d="M967 847 c-3 -8 -2 -20 3 -26 5 -9 8 -4 8 13 0 29 -3 32 -11 13z"/>
<path d="M2158 837 c32 -16 45 -18 54 -9 8 8 5 14 -16 22 -15 5 -39 10 -54 9
-25 0 -23 -2 16 -22z"/>
<path d="M1385 840 c27 -12 43 -12 25 0 -8 5 -22 9 -30 9 -10 0 -8 -3 5 -9z"/>
<path d="M1440 840 c-18 -12 -2 -12 25 0 13 6 15 9 5 9 -8 0 -22 -4 -30 -9z"/>
<path d="M1510 840 c8 -5 20 -10 25 -10 6 0 3 5 -5 10 -8 5 -19 10 -25 10 -5
0 -3 -5 5 -10z"/>
<path d="M1565 840 c-13 -6 -15 -9 -5 -9 8 0 22 4 30 9 18 12 2 12 -25 0z"/>
<path d="M1630 840 c8 -5 20 -10 25 -10 6 0 3 5 -5 10 -8 5 -19 10 -25 10 -5
0 -3 -5 5 -10z"/>
<path d="M1690 840 c-18 -12 -2 -12 25 0 13 6 15 9 5 9 -8 0 -22 -4 -30 -9z"/>
<path d="M1840 833 c0 -6 8 -17 18 -24 16 -13 16 -13 2 6 -8 11 -16 22 -17 24
-2 2 -3 0 -3 -6z"/>
<path d="M856 815 c-2 -7 5 -15 17 -18 12 -3 39 -10 61 -16 51 -13 33 7 -28
30 -35 13 -46 14 -50 4z"/>
<path d="M1179 810 c-13 -10 -19 -19 -13 -20 6 0 19 9 29 20 23 26 14 26 -16
0z"/>
<path d="M616 804 c-5 -13 -3 -14 6 -7 7 6 20 13 28 16 10 4 8 6 -6 6 -12 1
-25 -6 -28 -15z"/>
<path d="M715 809 c-5 -5 -21 -18 -35 -29 l-25 -21 34 20 c19 11 38 18 43 15
4 -3 5 2 2 10 -7 18 -6 18 -19 5z"/>
<path d="M1379 797 c25 -27 37 -35 26 -17 -3 6 3 10 13 10 11 0 35 7 53 16 20
9 24 12 9 8 -35 -10 -81 -9 -105 1 -18 7 -17 5 4 -18z"/>
<path d="M1560 804 c-32 -13 -32 -14 -5 -8 17 3 42 5 58 5 63 -3 93 -2 112 1
40 6 25 -16 -21 -31 -26 -8 -42 -17 -36 -19 6 -2 21 2 33 8 14 8 24 9 28 2 3
-5 14 0 23 13 15 20 15 25 3 35 -11 9 -22 9 -49 -1 -27 -10 -41 -10 -61 -1
-31 14 -39 14 -85 -4z"/>
<path d="M1286 797 c3 -8 11 -14 19 -14 20 0 19 4 -5 17 -15 8 -18 8 -14 -3z"/>
<path d="M1000 784 c0 -8 5 -12 10 -9 6 3 10 10 10 16 0 5 -4 9 -10 9 -5 0
-10 -7 -10 -16z"/>
<path d="M800 781 c0 -5 5 -13 10 -16 6 -3 10 -2 10 4 0 5 -4 13 -10 16 -5 3
-10 2 -10 -4z"/>
<path d="M1330 786 c0 -4 7 -18 16 -31 10 -15 14 -37 12 -57 -5 -28 -4 -29 9
-13 20 28 16 59 -12 85 -14 13 -25 20 -25 16z"/>
<path d="M1123 759 c-35 -22 -46 -37 -15 -20 22 13 58 40 52 41 -3 0 -20 -10
-37 -21z"/>
<path d="M1451 771 c-8 -5 -11 -16 -8 -24 7 -17 94 -53 105 -43 12 13 -30 36
-66 36 -23 0 -32 4 -29 13 4 13 45 14 87 3 15 -5 12 -1 -9 8 -38 18 -60 20
-80 7z m66 -47 c-3 -3 -12 -4 -19 -1 -8 3 -5 6 6 6 11 1 17 -2 13 -5z"/>
<path d="M1580 770 c-11 -8 -7 -9 15 -4 37 8 45 14 19 14 -10 0 -26 -5 -34
-10z"/>
<path d="M465 765 c-5 -2 -22 -6 -37 -9 -16 -4 -28 -11 -28 -16 0 -16 33 -11
65 10 27 18 27 24 0 15z"/>
<path d="M1795 760 c-4 -7 85 -23 92 -17 1 2 -17 8 -42 14 -25 6 -48 7 -50 3z"/>
<path d="M2070 766 c0 -8 57 -36 75 -36 26 0 17 19 -12 26 -16 3 -36 8 -45 11
-10 2 -18 2 -18 -1z"/>
<path d="M830 744 c0 -5 16 -25 35 -44 19 -19 35 -29 35 -23 0 5 29 13 64 15
35 3 72 11 82 17 18 12 18 12 -1 6 -11 -4 -53 -10 -94 -13 -71 -5 -74 -4 -97
24 -13 16 -23 24 -24 18z"/>
<path d="M590 735 c0 -5 5 -17 10 -25 5 -8 10 -10 10 -5 0 6 -5 17 -10 25 -5
8 -10 11 -10 5z"/>
<path d="M1573 732 c-6 -4 11 -7 37 -7 26 0 43 3 37 7 -7 4 -23 8 -37 8 -14 0
-30 -4 -37 -8z"/>
<path d="M1946 725 c-9 -26 -7 -32 5 -12 6 10 9 21 6 23 -2 3 -7 -2 -11 -11z"/>
<path d="M1679 723 c-1 -5 -1 -12 0 -17 1 -5 -15 -7 -36 -4 -21 3 -49 1 -63
-3 -20 -5 -15 -7 22 -8 25 -1 48 -6 50 -11 2 -6 16 3 33 20 22 23 25 30 12 30
-9 0 -18 -3 -18 -7z"/>
<path d="M1745 700 c-3 -5 1 -10 10 -10 9 0 13 5 10 10 -3 6 -8 10 -10 10 -2
0 -7 -4 -10 -10z"/>
<path d="M1385 669 c-4 -11 -4 -23 -1 -26 3 -4 6 2 7 13 0 18 1 18 9 -1 8 -19
9 -19 9 2 1 30 -16 38 -24 12z"/>
<path d="M498 673 c-16 -4 -34 -33 -20 -33 12 0 48 28 42 32 -3 3 -12 3 -22 1z"/>
<path d="M2044 661 c17 -11 34 -17 39 -14 13 8 -4 21 -38 28 l-30 7 29 -21z"/>
<path d="M1615 650 c-3 -6 1 -7 9 -4 18 7 21 14 7 14 -6 0 -13 -4 -16 -10z"/>
<path d="M1718 653 c7 -3 16 -2 19 1 4 3 -2 6 -13 5 -11 0 -14 -3 -6 -6z"/>
<path d="M1895 649 c-4 -6 -5 -12 -2 -15 2 -3 7 2 10 11 7 17 1 20 -8 4z"/>
<path d="M814 636 c-3 -8 0 -24 6 -36 6 -12 9 -29 5 -38 -5 -13 -4 -14 6 -5
10 10 10 18 0 39 -9 20 -9 30 0 40 9 11 9 14 0 14 -6 0 -14 -6 -17 -14z"/>
<path d="M946 635 c10 -8 23 -15 28 -15 6 0 1 7 -10 15 -10 8 -23 15 -28 15
-6 0 -1 -7 10 -15z"/>
<path d="M1286 631 c-3 -5 1 -11 9 -14 9 -4 12 -1 8 9 -6 16 -10 17 -17 5z"/>
<path d="M1430 624 c-19 -7 -46 -13 -60 -14 -14 -1 -19 -4 -12 -7 17 -7 112
17 112 28 0 5 -1 8 -2 8 -2 -1 -19 -7 -38 -15z"/>
<path d="M560 620 c-11 -8 -9 -9 11 -5 38 9 95 -19 119 -57 39 -65 18 -118
-47 -118 -31 0 -34 -2 -22 -16 8 -10 15 -12 17 -5 2 6 12 11 23 11 10 0 28 9
40 21 21 21 23 59 4 103 -7 15 -5 17 6 11 8 -5 6 1 -5 13 -10 12 -21 21 -25
20 -3 -1 -23 6 -43 15 -43 20 -57 21 -78 7z"/>
<path d="M1540 605 c-25 -13 -40 -24 -35 -24 6 0 30 11 55 24 25 13 41 24 35
24 -5 0 -30 -11 -55 -24z"/>
<path d="M1920 619 c-13 -6 -33 -18 -44 -27 -18 -16 -19 -16 -13 3 5 15 1 12
-17 -9 -13 -15 -37 -39 -52 -52 -16 -13 -26 -23 -22 -24 4 0 24 15 45 33 27
24 35 27 28 12 -19 -45 -17 -83 4 -104 12 -12 30 -21 40 -21 11 0 21 -5 23
-11 2 -7 9 -5 17 5 12 14 9 16 -22 16 -65 0 -86 53 -47 118 24 38 81 66 119
57 20 -4 22 -3 11 5 -18 12 -37 12 -70 -1z"/>
<path d="M221 603 c7 -12 15 -20 18 -17 3 2 -3 12 -13 22 -17 16 -18 16 -5 -5z"/>
<path d="M2320 605 c-7 -9 -11 -17 -9 -20 3 -2 10 5 17 15 14 24 10 26 -8 5z"/>
<path d="M1000 600 c8 -5 20 -10 25 -10 6 0 3 5 -5 10 -8 5 -19 10 -25 10 -5
0 -3 -5 5 -10z"/>
<path d="M1770 606 c0 -2 7 -7 16 -10 8 -3 12 -2 9 4 -6 10 -25 14 -25 6z"/>
<path d="M115 589 c-4 -6 -5 -12 -2 -15 2 -3 7 2 10 11 7 17 1 20 -8 4z"/>
<path d="M524 570 c-4 -16 -12 -30 -18 -30 -10 0 13 -20 24 -20 3 0 5 18 5 40
1 48 -3 51 -11 10z"/>
<path d="M1225 590 c3 -6 20 -10 37 -10 38 0 34 5 -10 13 -21 4 -31 3 -27 -3z"/>
<path d="M2015 560 c0 -43 2 -45 25 -30 10 6 11 10 3 10 -7 0 -13 8 -13 18 0
9 -4 23 -8 29 -5 7 -8 -4 -7 -27z"/>
<path d="M2426 587 c3 -10 9 -15 12 -12 3 3 0 11 -7 18 -10 9 -11 8 -5 -6z"/>
<path d="M926 575 c-9 -26 -7 -32 5 -12 6 10 9 21 6 23 -2 3 -7 -2 -11 -11z"/>
<path d="M1065 575 c17 -8 37 -14 45 -14 8 0 -1 7 -20 14 -46 18 -64 17 -25 0z"/>
<path d="M1701 575 c1 -19 18 -51 18 -35 0 8 -4 22 -9 30 -5 8 -9 11 -9 5z"/>
<path d="M210 561 c0 -6 4 -13 10 -16 6 -3 7 1 4 9 -7 18 -14 21 -14 7z"/>
<path d="M1405 560 c-27 -7 -28 -8 -5 -8 14 0 34 3 45 8 25 11 2 11 -40 0z"/>
<path d="M2326 553 c-6 -14 -5 -15 5 -6 7 7 10 15 7 18 -3 3 -9 -2 -12 -12z"/>
<path d="M125 550 c-3 -5 -1 -10 4 -10 6 0 11 5 11 10 0 6 -2 10 -4 10 -3 0
-8 -4 -11 -10z"/>
<path d="M158 541 c-4 -13 -11 -20 -17 -16 -6 3 -11 1 -11 -4 0 -6 7 -11 15
-11 8 0 15 -4 15 -9 0 -4 11 -6 25 -3 27 5 29 10 16 30 -6 11 -10 10 -16 -5
-7 -15 -9 -13 -14 12 -7 29 -7 29 -13 6z"/>
<path d="M1138 553 c6 -2 18 -2 25 0 6 3 1 5 -13 5 -14 0 -19 -2 -12 -5z"/>
<path d="M2380 535 c-1 -27 -2 -28 -14 -12 -12 16 -14 16 -20 1 -8 -22 -9 -21
19 -26 14 -3 25 -1 25 3 0 5 7 9 15 9 8 0 15 5 15 11 0 5 -5 7 -10 4 -6 -3
-14 4 -19 17 -9 22 -10 22 -11 -7z"/>
<path d="M2410 550 c0 -5 5 -10 11 -10 5 0 7 5 4 10 -3 6 -8 10 -11 10 -2 0
-4 -4 -4 -10z"/>
<path d="M1228 543 c29 -2 74 -2 100 0 26 2 2 3 -53 3 -55 0 -76 -1 -47 -3z"/>
<path d="M1538 545 c-7 -8 33 -105 44 -105 5 0 1 15 -8 32 -9 18 -20 43 -23
56 -4 13 -9 20 -13 17z"/>
<path d="M59 493 l-34 -38 38 34 c20 19 37 36 37 38 0 8 -8 0 -41 -34z"/>
<path d="M762 514 c10 -10 20 -15 24 -12 3 4 -5 12 -18 18 -22 12 -22 12 -6
-6z"/>
<path d="M1047 518 c-3 -7 -12 -30 -21 -50 -9 -21 -14 -38 -11 -38 8 0 47 92
41 97 -2 2 -6 -2 -9 -9z"/>
<path d="M2480 495 c19 -19 36 -35 39 -35 3 0 -10 16 -29 35 -19 19 -36 35
-39 35 -3 0 10 -16 29 -35z"/>
<path d="M1125 482 c4 -13 1 -29 -5 -37 -6 -8 -10 -22 -7 -32 4 -14 5 -14 6 4
0 12 7 26 15 30 12 7 12 11 0 33 -14 24 -15 24 -9 2z"/>
<path d="M1173 488 c0 -7 -3 -31 -6 -53 -4 -25 -3 -32 2 -20 13 33 21 85 12
85 -4 0 -8 -6 -8 -12z"/>
<path d="M1740 490 c-9 -6 -10 -10 -3 -10 6 0 15 5 18 10 8 12 4 12 -15 0z"/>
<path d="M1290 489 c0 -9 40 -89 45 -89 6 0 -25 73 -36 85 -5 5 -9 7 -9 4z"/>
<path d="M850 450 c8 -5 20 -10 25 -10 6 0 3 5 -5 10 -8 5 -19 10 -25 10 -5 0
-3 -5 5 -10z"/>
<path d="M1635 428 c-22 -12 -71 -32 -110 -44 -38 -13 -63 -23 -54 -24 9 0 40
8 70 19 58 20 161 70 144 70 -5 0 -28 -9 -50 -21z"/>
<path d="M145 410 c-10 -11 -15 -20 -11 -20 11 0 39 30 34 36 -3 2 -13 -5 -23
-16z"/>
<path d="M900 425 c0 -8 73 -36 78 -30 3 3 3 5 0 5 -3 0 -22 7 -42 15 -20 8
-36 13 -36 10z"/>
<path d="M2380 426 c0 -11 30 -39 36 -34 2 3 -5 13 -16 23 -11 10 -20 15 -20
11z"/>
<path d="M2184 405 c-3 -8 -4 -20 -2 -27 3 -7 7 -1 10 15 6 29 1 36 -8 12z"/>
<path d="M362 390 c0 -14 2 -19 5 -12 2 6 2 18 0 25 -3 6 -5 1 -5 -13z"/>
<path d="M90 380 c-9 -6 -10 -10 -3 -10 6 0 15 5 18 10 8 12 4 12 -15 0z"/>
<path d="M2447 379 c7 -7 15 -10 18 -7 3 3 -2 9 -12 12 -14 6 -15 5 -6 -5z"/>
<path d="M126 365 c-3 -8 -1 -15 4 -15 6 0 10 7 10 15 0 8 -2 15 -4 15 -2 0
-6 -7 -10 -15z"/>
<path d="M1035 370 c11 -5 29 -8 40 -8 16 0 15 2 -5 8 -34 11 -60 11 -35 0z"/>
<path d="M2410 365 c0 -8 4 -15 10 -15 5 0 7 7 4 15 -4 8 -8 15 -10 15 -2 0
-4 -7 -4 -15z"/>
<path d="M341 365 c1 -19 18 -51 18 -35 0 8 -4 22 -9 30 -5 8 -9 11 -9 5z"/>
<path d="M2196 355 c-3 -9 -6 -22 -5 -28 0 -7 5 -1 10 12 5 13 8 26 5 28 -2 2
-6 -3 -10 -12z"/>
<path d="M1113 353 c9 -2 23 -2 30 0 6 3 -1 5 -18 5 -16 0 -22 -2 -12 -5z"/>
<path d="M1413 353 c9 -2 23 -2 30 0 6 3 -1 5 -18 5 -16 0 -22 -2 -12 -5z"/>
<path d="M1218 343 c34 -2 88 -2 120 0 31 2 3 3 -63 3 -66 0 -92 -1 -57 -3z"/>
<path d="M90 320 c-9 -6 -10 -10 -3 -10 6 0 15 5 18 10 8 12 4 12 -15 0z"/>
<path d="M226 315 c4 -8 10 -12 15 -9 14 8 10 24 -6 24 -9 0 -12 -6 -9 -15z"/>
<path d="M750 321 c0 -15 104 -42 214 -57 128 -17 181 -41 211 -96 16 -30 17
-40 7 -62 -11 -25 -52 -38 -52 -16 0 6 6 10 14 10 8 0 17 7 20 16 17 43 -60
62 -88 22 -22 -31 -20 -60 5 -92 25 -31 58 -34 136 -9 47 15 60 15 101 3 26
-7 65 -15 88 -18 35 -3 44 0 63 23 25 33 27 62 5 93 -28 40 -105 21 -88 -22 3
-9 12 -16 20 -16 8 0 14 -4 14 -10 0 -22 -41 -9 -52 16 -10 22 -9 32 7 62 30
55 83 79 211 96 110 15 214 42 214 57 0 4 -15 3 -32 -2 -18 -5 -100 -19 -183
-30 -157 -21 -222 -42 -248 -82 -24 -37 -29 -82 -14 -118 l14 -34 -62 0 -62 0
14 34 c15 36 10 81 -14 118 -26 40 -91 61 -248 82 -82 11 -165 25 -182 30 -18
5 -33 6 -33 2z"/>
<path d="M2300 321 c0 -17 18 -21 24 -6 3 9 0 15 -9 15 -8 0 -15 -4 -15 -9z"/>
<path d="M2447 319 c7 -7 15 -10 18 -7 3 3 -2 9 -12 12 -14 6 -15 5 -6 -5z"/>
<path d="M352 285 c6 -14 15 -25 19 -25 4 0 2 11 -4 25 -7 14 -15 25 -19 25
-4 0 -2 -11 4 -25z"/>
<path d="M2183 285 c-6 -14 -8 -25 -4 -25 4 0 13 11 19 25 6 14 8 25 4 25 -4
0 -12 -11 -19 -25z"/>
<path d="M143 289 c-7 -7 -13 -25 -13 -40 0 -28 -22 -59 -42 -59 -6 0 -9 -3
-6 -6 4 -3 16 0 29 6 20 11 21 10 17 -12 -3 -14 3 -31 15 -43 20 -20 20 -20 8
2 -15 29 -14 73 2 92 18 21 8 78 -10 60z"/>
<path d="M2388 270 c-3 -18 1 -35 9 -41 16 -14 17 -63 2 -92 -12 -22 -12 -22
8 -2 12 12 18 29 15 43 -4 18 -1 21 14 15 18 -6 18 -6 2 14 -10 11 -18 31 -18
45 0 14 -6 31 -14 37 -11 9 -15 6 -18 -19z"/>
<path d="M390 287 c0 -2 15 -16 33 -33 l32 -29 -29 33 c-28 30 -36 37 -36 29z"/>
<path d="M1261 281 c-19 -12 -6 -41 19 -41 16 0 21 5 18 22 -3 25 -17 32 -37
19z"/>
<path d="M2124 258 l-29 -33 33 29 c30 28 37 36 29 36 -2 0 -16 -15 -33 -32z"/>
<path d="M59 243 c-13 -16 -12 -17 4 -4 16 13 21 21 13 21 -2 0 -10 -8 -17
-17z"/>
<path d="M222 240 c-6 -11 -12 -33 -12 -49 0 -17 -4 -33 -10 -36 -5 -3 -15
-16 -21 -28 l-10 -22 20 23 c24 28 34 28 26 1 -6 -19 -5 -20 8 -8 10 10 12 19
6 31 -13 25 -11 64 4 76 10 9 20 7 38 -5 l24 -16 -24 26 c-29 32 -33 33 -49 7z"/>
<path d="M2279 233 l-24 -26 24 16 c18 12 28 14 38 5 15 -12 17 -51 4 -76 -6
-12 -4 -21 6 -31 13 -12 14 -11 8 8 -8 27 2 27 26 -1 l20 -23 -10 22 c-6 12
-16 25 -21 28 -6 3 -10 21 -10 38 -1 28 -19 67 -32 67 -2 0 -15 -12 -29 -27z"/>
<path d="M2470 256 c0 -2 8 -10 18 -17 15 -13 16 -12 3 4 -13 16 -21 21 -21
13z"/>
<path d="M290 140 c0 -6 7 -10 15 -10 8 0 15 2 15 4 0 2 -7 6 -15 10 -8 3 -15
1 -15 -4z"/>
<path d="M2240 140 c-13 -8 -12 -10 3 -10 9 0 17 5 17 10 0 12 -1 12 -20 0z"/>
<path d="M84 98 l-19 -23 23 19 c21 18 27 26 19 26 -2 0 -12 -10 -23 -22z"/>
<path d="M257 104 c3 -9 9 -12 12 -7 3 4 10 11 15 16 5 4 0 7 -12 7 -15 0 -20
-4 -15 -16z"/>
<path d="M2266 113 c5 -5 12 -12 15 -16 3 -5 9 -2 12 7 5 12 0 16 -15 16 -12
0 -17 -3 -12 -7z"/>
<path d="M2455 100 c10 -11 20 -20 23 -20 3 0 -3 9 -13 20 -10 11 -20 20 -23
20 -3 0 3 -9 13 -20z"/>
<path d="M52 90 c0 -14 2 -19 5 -12 2 6 2 18 0 25 -3 6 -5 1 -5 -13z"/>
<path d="M2492 90 c0 -14 2 -19 5 -12 2 6 2 18 0 25 -3 6 -5 1 -5 -13z"/>
<path d="M193 80 c-11 -16 -10 -18 2 -14 8 4 15 12 15 20 0 19 -3 18 -17 -6z"/>
<path d="M2340 88 c0 -9 7 -19 16 -22 15 -6 15 -4 3 11 -7 10 -15 20 -16 22
-2 2 -3 -3 -3 -11z"/>
<path d="M382 60 c0 -14 2 -19 5 -12 2 6 2 18 0 25 -3 6 -5 1 -5 -13z"/>
<path d="M2162 60 c0 -14 2 -19 5 -12 2 6 2 18 0 25 -3 6 -5 1 -5 -13z"/>
<path d="M151 30 c-13 -11 -19 -20 -14 -20 6 0 18 9 28 20 23 25 17 25 -14 0z"/>
<path d="M2387 29 c12 -12 24 -21 27 -18 2 2 -8 13 -22 23 l-27 19 22 -24z"/>
</g>
</svg>
